<svg xmlns="http://www.w3.org/2000/svg" xmlns:xlink="http://www.w3.org/1999/xlink" width="77.081" height="38.081" viewBox="0 0 77.081 38.081">
  <defs>
    <linearGradient id="linear-gradient" x1="0.683" y1="0.155" x2="0.087" y2="1" gradientUnits="objectBoundingBox">
      <stop offset="0" stop-color="#00abff"/>
      <stop offset="1" stop-color="#efff00"/>
    </linearGradient>
  </defs>
  <g id="donate-icon" transform="translate(-19.317 -351.06)">
    <path id="Union_5" data-name="Union 5" d="M-634.121-150.559a1.062,1.062,0,0,1-1.062-1.062v-32.687a1.062,1.062,0,0,1,1.062-1.063h7.614a1.062,1.062,0,0,1,1.062,1.063v1.925h5.2a1.062,1.062,0,0,1,1.062,1.062v1.473h3.106l5.394-5.022a10.3,10.3,0,0,1,7.04-2.77h11.732a5.1,5.1,0,0,1,5.141,4.518,4.982,4.982,0,0,1-1.283,3.791c-.069.076-.141.149-.215.22l19.381-4.717a4.629,4.629,0,0,1,3.534.548,4.641,4.641,0,0,1,2.111,2.887l4,16.427a4.678,4.678,0,0,1-3.436,5.646l-31.027,7.553a4.7,4.7,0,0,1-1.114.134,4.632,4.632,0,0,1-2.419-.683,4.631,4.631,0,0,1-1.876-2.169h-8.174a1.01,1.01,0,0,1-.315-.049l-3.989-1.238a29.2,29.2,0,0,0-7.589-1.291v1.453a1.062,1.062,0,0,1-1.062,1.062h-5.2v1.926a1.062,1.062,0,0,1-1.062,1.062Zm1.062-2.125h5.49v-30.563h-5.49Zm32.822-14.031,2.761,11.341a1.059,1.059,0,0,1,.4.828,1.035,1.035,0,0,1-.058.344,2.555,2.555,0,0,0,.986,1.092,2.556,2.556,0,0,0,1.944.3l31.028-7.552a2.56,2.56,0,0,0,1.589-1.162,2.552,2.552,0,0,0,.3-1.945l-2.925-12.016Zm-18.948,8.527a31.209,31.209,0,0,1,8.218,1.39l3.836,1.19h7.434l-3.656-15.02a4.68,4.68,0,0,1,3.435-5.647l5.949-1.448H-602.6a7.706,7.706,0,0,1-6.972,6.058l-.064,0a1.063,1.063,0,0,1-1.06-1,1.063,1.063,0,0,1,1-1.124c4.451-.267,5.152-4.943,5.179-5.142a1.066,1.066,0,0,1,1.052-.92h11.759a2.84,2.84,0,0,0,2.089-.92,2.812,2.812,0,0,0,.733-2.17,2.963,2.963,0,0,0-3.024-2.578h-11.732a8.181,8.181,0,0,0-5.593,2.2l-5.7,5.305a1.061,1.061,0,0,1-.724.284h-3.523Zm-6.26,2.517h4.136v-24.587h-4.136Zm57.051-26.114-31.027,7.552a2.554,2.554,0,0,0-1.589,1.163,2.55,2.55,0,0,0-.3,1.944l.577,2.37,36.024-8.77-.577-2.368a2.554,2.554,0,0,0-1.162-1.589,2.552,2.552,0,0,0-1.333-.375A2.6,2.6,0,0,0-568.394-181.786Zm-7.319,19.757-1.491-6.127a1.046,1.046,0,0,1,.122-.795,1.047,1.047,0,0,1,.65-.475l7.823-1.9a1.068,1.068,0,0,1,.795.123,1.049,1.049,0,0,1,.474.649l1.492,6.129a1.052,1.052,0,0,1-.774,1.269l-7.822,1.9a.976.976,0,0,1-.248.03A1.051,1.051,0,0,1-575.713-162.029Zm.8-5.6.995,4.085,5.78-1.407-.995-4.085Z" transform="translate(655 539.2)" stroke="rgba(0,0,0,0)" stroke-miterlimit="10" stroke-width="1" fill="url(#linear-gradient)"/>
  </g>
</svg>
